<svg width="1512" height="320" viewBox="0 0 1512 320" fill="none" xmlns="http://www.w3.org/2000/svg">
<g clip-path="url(#clip0_630_168)">
<path d="M1564.15 151.329C1567.93 148.868 1558.03 140.27 1554.96 142.267C1506.44 173.848 1451.77 197.438 1396.24 213.488C1342.58 228.991 1287.25 235.011 1231.62 228.549C1185.51 223.192 1141.18 208.255 1101.66 183.863C1084.48 173.26 1068.32 161.089 1052.9 148.067C1036.81 134.471 1021.82 120.495 1012.73 101.093C1004.77 84.09 1001.5 61.6195 1017.68 48.2657C1027.13 40.4691 1039.06 39.3148 1050.53 42.75C1058.59 45.1623 1067.95 49.6619 1073.24 56.477C1073.96 57.4032 1082.97 64.3013 1082.88 60.0021C1082.46 41.1119 1090.23 22.2009 1107.91 13.485C1125.33 4.89356 1146.15 9.89086 1158.47 24.7307C1167.22 35.2644 1169.54 49.4338 1168.43 62.7461C1165.45 98.5774 1141.26 130.331 1115.49 153.651C1112.89 156.001 1122.8 164.703 1125.97 161.835C1144.46 145.101 1160.69 125.25 1170.68 102.241C1177.29 86.9861 1181.31 70.2386 1179.05 53.5809C1176.65 35.9003 1166.14 21.2817 1151.61 11.2249C1134.96 -0.311094 1113.24 -4.65868 1095.16 6.37962C1078.75 16.4019 1071.45 34.5802 1071.86 53.2768C1075.08 54.4518 1078.29 55.6269 1081.5 56.8019C1074.33 47.5538 1063.22 40.6488 1052.5 36.3081C1040.63 31.5044 1026.54 29.023 1014.66 35.1538C991.412 47.146 992.193 73.5978 1001.26 94.7482C1010.64 116.617 1026.7 132.812 1044.4 148.129C1061.2 162.651 1078.87 176.198 1097.63 188.086C1139.46 214.58 1186.39 231.237 1235.51 237.417C1295.35 244.944 1355.09 237.859 1412.61 220.42C1465.59 204.357 1517.69 181.575 1564.16 151.329H1564.15Z" fill="#E7471B"/>
<path d="M1059.37 193.402C1063.14 191.771 1053.78 182.778 1050.18 184.34C1041.41 188.142 1032.16 190.789 1022.87 192.953C994.047 199.671 964.037 201.765 934.512 200.639C908.188 199.636 883.643 190.057 859.11 181.313C832.877 171.968 805.938 163.86 777.823 163.881C748.36 163.902 718.44 169.279 690.166 177.297C663.49 184.859 637.285 195.296 613.499 209.645C596.741 219.757 579.126 232.323 569.049 249.554C565.473 255.671 562.824 262.707 562.9 269.868C563.018 281.404 569.166 292.283 576.643 300.702C584.5 309.556 595.185 317.436 607.074 319.558C619.316 321.742 630.403 315.348 637.838 305.934C670.905 264.035 614.585 213.716 581.249 193.678C541.148 169.583 493.46 162.464 447.322 164.427C399.15 166.473 354.173 180.027 311.382 201.758C275.411 220.026 240.802 241.571 201.144 251.068C106.363 273.773 15.663 225.535 -54.6825 165.637C-55.7961 164.69 -60.1464 161.835 -61.6403 163.743C-63.2034 165.74 -59.3649 168.975 -58.1199 170.033C-45.9404 180.401 -33.4081 190.347 -20.3916 199.643C48.0035 248.517 132.403 281.397 216.657 258.505C254.212 248.303 287.286 227.63 321.715 210.232C363.255 189.234 406.993 175.859 453.713 173.744C498.26 171.733 545.298 177.684 583.67 201.903C601.057 212.88 618.424 228.459 628.888 246.326C634.954 256.687 638.585 268.638 635.798 280.623C632.955 292.878 623.632 305.713 611.293 309.701C589.79 316.648 570.542 289.104 574.602 269.847C578.123 253.162 592.979 239.808 605.933 229.973C625.741 214.932 648.703 203.963 671.928 195.31C698.687 185.343 726.754 178.431 755.131 175.134C769.358 173.482 783.785 172.521 798.088 173.675C812.349 174.83 826.32 178.009 839.987 182.129C864.187 189.421 887.419 199.892 912.048 205.74C939.166 212.181 968.056 211.027 995.583 208.021C1017.08 205.677 1039.38 202.028 1059.35 193.367L1059.37 193.402Z" fill="#E7471B"/>
</g>
<defs>
<clipPath id="clip0_630_168">
<rect width="1627" height="320" fill="white" transform="translate(-62)"/>
</clipPath>
</defs>
</svg>
