<?xml version="1.0" encoding="utf-8"?>
<!-- Generator: Adobe Illustrator 27.9.0, SVG Export Plug-In . SVG Version: 6.00 Build 0)  -->
<svg version="1.1" id="圖層_1" xmlns="http://www.w3.org/2000/svg" xmlns:xlink="http://www.w3.org/1999/xlink" x="0px" y="0px"
	 viewBox="0 0 44 138" style="enable-background:new 0 0 44 138;" xml:space="preserve">
<style type="text/css">
	.st0{fill:#E75972;}
	.st1{fill:#FFFFFF;}
</style>
<g>
	<path class="st0" d="M0,20C0,9,9,0,20,0h24v138H20c-11,0-20-9-20-20V20z"/>
</g>
<path class="st1" d="M25.4,111.4c-0.8,0.1-2,0.1-3,0l0.3-1.1c1.6,0.2,3.4,0.1,4.9-0.2c-0.3,1.5-0.4,3.3-0.2,4.9l-1.1,0.3
	c-0.2-1-0.2-2.2,0-3l-7.4,7.3l-0.8-0.8L25.4,111.4z"/>
<path class="st1" d="M17.5,23.5h13.1V25H17.5V23.5z M16.8,33.2h14.4v1.5H16.8V33.2z M19.6,26l1.5-0.4c0.6,2.1,1.3,4.8,1.6,6.5
	l-1.6,0.4C20.8,30.8,20.2,28.1,19.6,26z M26.9,25.7l1.7,0.3c-0.7,2.7-1.7,5.8-2.6,7.8l-1.5-0.4C25.4,31.5,26.4,28.1,26.9,25.7z
	 M22.7,20.8l1.5-0.4c0.3,0.8,0.7,1.9,0.9,2.6l-1.6,0.5C23.3,22.7,23,21.6,22.7,20.8z M18.1,44.4h4.9v1.4h-4.9V44.4z M18.1,41.3H24
	v7.7h-5.9v-1.4h4.4v-5h-4.4V41.3z M17.5,54.9l-0.1-1.4L18,53l4.6-1.4c0.1,0.4,0.3,1,0.4,1.3C18.5,54.4,17.9,54.6,17.5,54.9z
	 M20.9,50.3l1.3-0.6c0.8,1.3,1.8,3.1,2.2,4.1l-1.4,0.8C22.7,53.5,21.7,51.7,20.9,50.3z M17.5,54.9c-0.1-0.4-0.4-1.2-0.6-1.5
	c0.3-0.2,0.7-0.5,0.7-1.1v-11h1.5v12.4C19.1,53.7,17.5,54.3,17.5,54.9z M29.2,41.4h1.5v9.2c0,0.8-0.1,1.2-0.6,1.4
	c-0.5,0.2-1.2,0.3-2.3,0.3c0-0.4-0.2-1-0.4-1.4c0.7,0,1.4,0,1.6,0c0.2,0,0.3-0.1,0.3-0.3V41.4z M25.2,41.4H30v1.4h-3.2v12.5h-1.5
	V41.4z M25,66.7H30v1.2H25V66.7z M24.2,61.2H30v1.3h-4.4v12.8h-1.4V61.2z M29.2,61.2h1.4v3.1c0,0.7-0.1,1.1-0.7,1.3
	c-0.6,0.2-1.4,0.2-2.6,0.2c-0.1-0.4-0.3-0.9-0.4-1.3c0.9,0,1.8,0,2,0c0.3,0,0.3-0.1,0.3-0.2V61.2z M26.7,67.4
	c0.8,2.9,2.5,5.5,4.9,6.6c-0.3,0.3-0.8,0.8-1,1.2c-2.4-1.4-4.1-4.3-5-7.5L26.7,67.4z M29.6,66.7h0.3l0.3-0.1L31,67
	c-0.6,3.5-2.2,6.7-4.8,8.4c-0.2-0.3-0.7-0.8-1-1c2.4-1.5,3.9-4.4,4.4-7.4V66.7z M17.2,62h6.2v1.3h-6.2V62z M16.7,70.9h7.1v1.3h-7.1
	V70.9z M16.7,64.7h7V66h-7V64.7z M17,68.1h6.4v1.3H17V68.1z M19.6,60.5H21v4.7h-1.4V60.5z M19.6,68.6H21v6.7h-1.4V68.6z M21.7,65.9
	l1.3,0.3c-0.5,0.9-1,1.9-1.4,2.5l-1.1-0.3C20.9,67.8,21.4,66.7,21.7,65.9z M17.7,66.3l1.1-0.3c0.3,0.6,0.7,1.4,0.8,1.9l-1.2,0.4
	C18.3,67.7,18,66.9,17.7,66.3z M22,93.3h7.5v1.4H22V93.3z M21.3,82.1h5.8v1.3h-5.8V82.1z M21.9,80.4l1.7,0.3c-1.3,2.2-3.2,4.4-6,6
	c-0.2-0.4-0.7-0.9-1.1-1.2C19.1,84.2,20.9,82.2,21.9,80.4z M26.6,82.1h0.3l0.3-0.1l1,0.5c-1.9,4.9-6.3,8.1-10.8,9.6
	c-0.2-0.4-0.6-1-0.9-1.4c4.3-1.2,8.6-4.4,10.1-8.5V82.1z M19.2,85.2l1.1-1c1.2,0.8,2.7,2,3.4,2.9l-1.2,1.1
	C21.9,87.4,20.4,86.1,19.2,85.2z M28.7,88.4h1.6v7h-1.6V88.4z M22.6,88.4h6.9v1.4h-6.9v5.6h-1.5v-5.8l1.2-1.2H22.6z"/>
</svg>
