<?xml version="1.0" encoding="utf-8"?>
<!-- Generator: Adobe Illustrator 27.9.0, SVG Export Plug-In . SVG Version: 6.00 Build 0)  -->
<svg version="1.1" id="圖層_1" xmlns="http://www.w3.org/2000/svg" xmlns:xlink="http://www.w3.org/1999/xlink" x="0px" y="0px"
	 viewBox="0 0 44 138" style="enable-background:new 0 0 44 138;" xml:space="preserve">
<style type="text/css">
	.st0{fill:#E75972;}
	.st1{fill:#FFFFFF;}
	.st2{enable-background:new    ;}
</style>
<g>
	<path class="st0" d="M0,20C0,9,9,0,20,0h24v138H20c-11,0-20-9-20-20V20z"/>
	<path class="st1" d="M25.4,111.4c-0.8,0.1-2,0.1-3,0l0.3-1.1c1.6,0.2,3.4,0.1,4.9-0.2c-0.3,1.5-0.4,3.3-0.2,4.9l-1.1,0.3
		c-0.2-1-0.2-2.2,0-3l-7.4,7.3l-0.8-0.8L25.4,111.4z"/>
	<g class="st2">
		<path class="st1" d="M24.1,23.7c0,0,0,0.6,0,0.8c-0.1,7.3-0.3,9.9-0.8,10.6c-0.3,0.5-0.7,0.7-1.2,0.7c-0.5,0.1-1.2,0.1-2,0
			c0-0.5-0.2-1.2-0.5-1.6c0.7,0,1.4,0.1,1.7,0.1c0.3,0,0.4,0,0.6-0.3c0.4-0.5,0.5-2.7,0.6-8.8h-2.2c-0.2,4.5-0.7,8.5-3,10.9
			c-0.3-0.4-0.8-0.9-1.2-1.1c2-2.2,2.5-5.7,2.6-9.8h-2.2v-1.5h2.2c0-0.9,0-1.9,0-2.9h1.6c0,1,0,1.9,0,2.9H24.1z M31.2,22.6v13.2
			h-1.6v-1.1h-2.8v1.2h-1.5V22.6H31.2z M29.6,33.1v-9h-2.8v9H29.6z"/>
		<path class="st1" d="M25.2,41.5c0,3.1,0.4,9.4,6.9,13.2c-0.4,0.3-1,1-1.3,1.3c-3.9-2.3-5.7-5.8-6.5-8.9c-1.3,4.1-3.4,7.1-6.5,9
			c-0.3-0.3-1-1-1.5-1.3C20,53,22,49.6,23,45l0.9,0.2c-0.1-0.7-0.2-1.4-0.2-2h-4v-1.6H25.2z"/>
		<path class="st1" d="M25,74.3h6.4v1.4H17.1v-1.4h6.2v-2.5h-4.6v-1.4h4.6v-2.3h-3.8v-1.4c-0.7,0.5-1.5,1-2.2,1.4
			c-0.2-0.4-0.6-1-1-1.3c2-0.9,4.4-2.6,6-4.3h-2.7V61H25c1.5,2.3,4.4,4.5,7.1,5.6c-0.3,0.3-0.8,1-1.1,1.4c-0.7-0.3-1.5-0.8-2.2-1.2
			v1.3H25v2.3h4.6v1.4H25V74.3z M19.5,66.7h9.2c-1.8-1.2-3.4-2.7-4.6-4.2C23,64,21.3,65.5,19.5,66.7z"/>
		<path class="st1" d="M31.8,86.4c-0.9,1.2-2,2.6-2.9,3.5c0.7,1.6,1.8,2.7,3.3,3.8c-0.4,0.3-0.8,0.8-1,1.2c-1.7-1.3-2.8-2.6-3.6-4.4
			v3.8c0,0.8-0.2,1.3-0.7,1.5c-0.5,0.3-1.3,0.3-2.6,0.3c-0.1-0.4-0.3-1.1-0.5-1.5c0.9,0,1.7,0,2,0c0.3,0,0.4-0.1,0.4-0.4v-3.5
			c-1.3,1.3-2.7,2.6-3.8,3.6l-1-1.4l0.2-0.2c-1.8,0.6-3.6,1.2-5,1.6l-0.3-1.5c0.6-0.2,1.3-0.4,2.1-0.6v-4.4h-1.8v-1.5h1.8v-3.4h-1.9
			v-1.5h5.3v1.5h-1.9v3.4h1.6v1.5h-1.6v4l1.9-0.6l0.2,1.3c1.1-0.9,2.7-2.2,4.1-3.5v-4.3h-4v-1.5h4v-2.8h1.5v2.8H32v1.5h-4.3v0.7
			c0.2,1.2,0.4,2.1,0.7,3c0.7-0.9,1.5-2,2-2.9L31.8,86.4z M23.5,85.8c0.7,0.9,1.5,2.2,1.8,3L24,89.4c-0.3-0.9-1-2.1-1.7-3.1
			L23.5,85.8z M30.3,83.4c-0.4-0.5-1.3-1.3-2-1.9l0.9-0.8c0.7,0.5,1.6,1.2,2,1.7L30.3,83.4z"/>
	</g>
</g>
</svg>
