<?xml version="1.0" encoding="UTF-8"?><svg id="_圖層_1" xmlns="http://www.w3.org/2000/svg" xmlns:xlink="http://www.w3.org/1999/xlink" viewBox="0 0 297.59 73.4"><defs><style>.cls-1{clip-path:url(#clippath);}.cls-2{fill:none;}.cls-2,.cls-3,.cls-4,.cls-5{stroke-width:0px;}.cls-6{clip-path:url(#clippath-1);}.cls-3{fill:url(#_未命名漸層_7);}.cls-4{fill:url(#_未命名漸層_8);}.cls-5{fill:#1c2e69;}</style><clipPath id="clippath"><path class="cls-2" d="m48.7,1.02c-16.35,3.52-28.21,18.23-28.21,34.97,0,1.42.09,2.82.25,4.2-.06,0-.13,0-.19,0-5.88,0-9.37-1.4-10.38-4.15-1.03-2.82,1.22-6.82,6.17-10.98.4-.34.48-.93.17-1.36-.2-.28-.51-.42-.82-.42-.18,0-.35.05-.52.14C4.95,29.51-.27,36.42,1.57,41.45c1.35,3.7,6.18,5.74,13.58,5.74h0c2.16,0,4.51-.18,6.96-.53,4.55,14.54,18.14,25.12,34.16,25.12,5.19,0,10.21-1.09,14.91-3.26.47-.21.7-.75.54-1.24-.14-.42-.53-.69-.96-.69-.07,0-.14,0-.21.02-2.35.51-4.76.76-7.14.76-14.71,0-27.24-9.45-31.86-22.6,6.04-1.36,20.74-5.16,32.11-12.15.45-.28.61-.85.37-1.32-.18-.35-.53-.55-.9-.55-.13,0-.26.03-.38.07-12.98,5.31-24.12,7.08-31.49,8.25-.39.06-.77.12-1.14.18-.31-1.84-.48-3.72-.48-5.64,0-13.15,7.73-25.19,19.69-30.69.47-.21.7-.75.54-1.24-.14-.42-.53-.69-.96-.69-.07,0-.14,0-.21.02"/></clipPath><linearGradient id="_未命名漸層_7" x1="-52.91" y1="96.8" x2="-51.91" y2="96.8" gradientTransform="translate(-2484.33 -4641.62) rotate(-180) scale(48.32 -48.32)" gradientUnits="userSpaceOnUse"><stop offset="0" stop-color="#3c92d0"/><stop offset="1" stop-color="#142979"/></linearGradient><clipPath id="clippath-1"><path class="cls-2" d="m87.57,31.96c-.59.34-1.27.77-2.12,1.31-4.31,2.73-13.28,8.42-33.92,15.86-.43.15-.67.6-.56,1.05.1.4.46.67.86.67.04,0,.08,0,.13,0,4.67-.67,23.28-5.14,34.23-10.85l.07,1.09c.57,8.4-2.48,16.68-8.37,22.71-.32.33-.34.85-.04,1.2.18.2.42.31.67.31.18,0,.36-.06.52-.17,8.84-6.4,13.67-16.71,12.93-27.57-.1-1.48-.3-2.97-.55-4.22-.13-.61-.43-2.05-1.87-2.05-.53,0-1.16.22-1.98.68"/></clipPath><linearGradient id="_未命名漸層_8" x1="-52.91" y1="96.99" x2="-51.91" y2="96.99" gradientTransform="translate(-2458.83 -4638.82) rotate(-180) scale(48.33 -48.33)" gradientUnits="userSpaceOnUse"><stop offset="0" stop-color="#3c92d0"/><stop offset="1" stop-color="#142979"/></linearGradient></defs><path class="cls-5" d="m245.02,52.54c-16.39-7.42-16.34-18.82-16.26-30.1,0-.69-.02-5.2-.02-5.2,0-.55-.45-1-1-1h-3.97c-.55,0-1,.45-1,1,0,0-.02,4.51-.01,5.2.08,11.28.13,22.68-16.26,30.1-.13.06-.27.2-.27.35v3.26c0,.12.1.23.2.3.07.05.19.08.27.08.03,0,.07,0,.1-.02.13-.03,12.54-3.67,18.96-14.55,6.42,10.88,18.83,14.52,18.95,14.55.03.01.07.02.11.02.08,0,.2-.03.27-.08.1-.07.19-.18.19-.3v-3.26c0-.15-.13-.28-.27-.35"/><path class="cls-5" d="m112.57,27.63s.06,0,.07,0c2.76-.44,5.28-1.61,7.83-3.71.37-.31,1.37-1.15,1.37-1.15.74-.69,1.52-1.29,2.25-1.62,2.03-.89,6.05-.94,7.48-.93,1.43,0,5.39.04,7.43.93.74.32,1.51.93,2.25,1.62,0,0,1,.84,1.37,1.15,2.55,2.1,5.07,3.27,7.83,3.71,0,0,.05,0,.07,0,.19,0,.34-.16.34-.35,0,0,0-3.69,0-3.69,0-.17-.12-.32-.28-.37-1.81-.51-3.23-1.66-4.73-2.87-2.35-1.9-4.79-3.74-9.26-3.97,0,0-3.56-.13-5.04-.14-1.48.01-5.04.14-5.04.14-4.47.24-6.91,2.07-9.26,3.97-1.5,1.21-2.92,2.35-4.73,2.87-.17.05-.28.2-.29.37,0,0,0,3.69,0,3.69,0,.19.15.35.35.35"/><path class="cls-5" d="m147.12,33.41c.51,0,1.26-.25,1.67-.55l1.92-1.42c.12-.1.21-.25.21-.41,0-.29-.23-.51-.51-.52h-37.26c-.51,0-.93.42-.93.93v1.05c0,.51.42.93.93.93h14.52v7.93h-13.86c-.51,0-.93.42-.93.93v1.05c0,.51.42.92.93.92h.39c.08,0,.16.01.23.01h13.24v9.37h-14.52c-.51,0-.93.42-.93.93v1.05c0,.51.42.92.93.92h33.97c.51,0,1.26-.25,1.67-.55l1.92-1.42c.12-.1.21-.25.21-.41,0-.28-.23-.51-.51-.52h-14.89v-9.38h11c.51,0,1.26-.25,1.67-.55l1.93-1.42c.13-.1.21-.24.21-.42,0-.28-.23-.51-.51-.52h-14.29v-7.93h11.6Z"/><path class="cls-5" d="m290.02,36.83h-13.34v-1.55h8.29c.48,0,1.22-.23,1.61-.52l1.77-1.34c.12-.09.19-.23.19-.39,0-.27-.22-.48-.48-.49h-30.51c-.48,0-.87.39-.87.87v.99c0,.48.39.87.87.87h11.89v1.55h-13.87c-.48,0-.87.39-.87.87v.99c0,.48.39.87.87.87h31.35c.48,0,1.22-.24,1.61-.52l1.77-1.33c.12-.09.19-.23.19-.39,0-.27-.21-.48-.48-.49"/><path class="cls-5" d="m254.7,55.84c-.43,0-.65-.34-.65-.75v-8.48c0-.21-.1-.77.73-.77h14.59c.21,0,1.02.03,1.02.8v5.06c0,1.97-.68,3.03-1.52,3.47-.92.49-1.84.66-2.27.66h-11.9Zm8.13-2.65c.98,0,1.69-.31,1.95-.86.26-.55.27-1.33.27-1.35v-2.48h-5.66v4.7h3.44Z"/><path class="cls-5" d="m295.02,45.86h-4.19v-1.6h1.06c.49,0,1.27-.24,1.67-.54l1.83-1.38c.12-.09.2-.24.2-.4,0-.28-.22-.5-.5-.5h-43.9c-.5,0-.9.4-.9.9v1.02c0,.5.4.9.9.9h33.36v1.6h-10.97c-.55,0-.99.45-.99,1v1.13c0,.55.45.99.99.99h3.2s-1.42,1.04-1.42,1.04c-.07.05-.11.13-.11.22,0,.09.05.17.12.22.02.01.04.02.07.03,4.04,1.65,4.55,3.34,4.55,3.35,0,0,.02.06.04.16.02.1.04.31.04.32h-4.35c-.33,0-.6.27-.6.6v1c0,.33.27.6.6.6h.74s10.51,0,10.51,0c.02,0,3.86-.09,3.86-3.92v-3.62h0s.64,0,.64,0c.55,0,1.4-.27,1.84-.59l2.03-1.53c.13-.1.22-.26.22-.45,0-.3-.25-.55-.55-.56m-12.33,8.47h-2.16s1.79-1.05,1.79-1.05c0,0,.22-.1.19-.25-.35-2.04-1.34-3.73-2.05-4.04h4.31s0,4.12,0,4.36c0,.93-1.09.98-2.09.98"/><path class="cls-5" d="m292.69,19.24h-15.7v-2.01c0-.55-.46-1-1.01-1h-5.54c-.55,0-1,.45-1,1v2.01h-16.4c-.49,0-.89.4-.89.89v1.01c0,.49.4.89.89.89h16.4v1.76h-13.19c-.44,0-.81.36-.81.81v.92c0,.44.36.81.81.81h30.28c.44,0,1.14-.22,1.49-.48l1.64-1.24c.11-.08.18-.21.18-.36,0-.25-.2-.45-.44-.45h-12.42v-1.76h12.54c.49,0,1.25-.24,1.64-.53l1.81-1.36c.12-.09.2-.24.2-.4,0-.27-.22-.49-.49-.5"/><path class="cls-5" d="m295.56,31.22c0-.42-.06-1.28-.58-1.98-.9-1.21-2.87-1.25-2.99-1.25h-41.44c-.49,0-.9.4-.9.9v1.02c0,.5.4.9.9.9h38.58c.27,0,.77,0,.77.65v2.24c0,.33.27.57.6.57h4.46c.33,0,.6-.24.6-.57v-2.48Z"/><path class="cls-5" d="m174.29,34.16h-4.83v-9.78h1.31c.56,0,1.43-.27,1.87-.6l2.06-1.55c.14-.1.23-.27.23-.45,0-.31-.25-.56-.56-.57h-14.3c-.55,0-1.01.46-1.01,1.01v1.15c0,.56.46,1.01,1.01,1.01h4.36v9.78h-4.2c-.65,0-1.17.53-1.17,1.17v1.33c0,.64.53,1.17,1.17,1.17h4.2v11.66c-1.57.39-3.04.8-4.6,1.12-.18.04-.31.19-.31.38v5.11c0,.12.04.23.14.3.06.05.13.08.21.08.03,0,.03,0,.07-.01.09-.03,8.74-2.61,14.13-7.5.08-.07.09-.21.09-.32v-1.69c0-.23-.15-.4-.4-.33-.04.01-1.79.66-4.3,1.44v-10.22h.66c.65,0,1.65-.32,2.17-.7l2.38-1.8c.16-.12.26-.31.26-.53,0-.36-.29-.65-.65-.66"/><path class="cls-5" d="m192.67,19.12c3.12,2.01,4.41,4.35,4.42,4.37.07.13.2.2.33.2.06,0,.11-.01.17-.04l1.54-.77c.14-.07.22-.23.2-.39-.56-4.21-3.41-5.72-3.53-5.78-.05-.03-.11-.04-.17-.04-.07,0-.14.02-.2.06l-2.76,1.76c-.11.07-.17.19-.17.32s.06.25.17.31"/><path class="cls-5" d="m200.73,56.05l-6.3-16.5,5.83-9.15s.1-.18.11-.25c.02-.24-.25-.26-.25-.26h-4.59c-.22,0-.31.08-.4.2,0,0-4.72,6.42-4.72,6.42v-8.8h6.3c.54,0,1.39-.26,1.83-.59l2.01-1.52c.13-.1.22-.26.22-.44,0-.3-.24-.55-.54-.55h-9.82v-7.37c0-.54-.44-.99-.98-.99h-3.93c-.54,0-.99.44-.99.99v7.37h-8.32c-.54,0-.99.45-.99.99v1.12c0,.54.44.99.99.99h8.32v8.56l-3.99-6.16s-.15-.27-.39-.27c0,0-4.12,0-4.34,0s-.31.11-.26.27c.02.05.09.18.11.2l5.44,9.24-8.1,16.45c-.06.13-.07.26,0,.38.07.12.19.16.33.16h4.04c.47,0,.79-.4.84-.51l6.32-12.65v9.2c0,1.81-1.29,1.74-1.72,1.74h-.5c-.41,0-.74.34-.74.75v.73c0,.4.33.74.74.74h4.26c1.07,0,1.92-.31,2.59-.98,1.33-1.35,1.27-2.6,1.27-3.56v-8.9l4.84,12.94c.2.51.82.53.95.53h4.21c.14,0,.26-.05.33-.16.07-.12.04-.2,0-.34"/><g class="cls-1"><rect class="cls-3" x="-13.77" y="-13.37" width="99.16" height="99.52" transform="translate(-14.44 45.39) rotate(-55.62)"/></g><g class="cls-6"><rect class="cls-4" x="45.93" y="21.41" width="51.7" height="53.75" transform="translate(-8.6 80.26) rotate(-55.62)"/></g></svg>