<svg width="437" height="273" viewBox="0 0 437 273" fill="none" xmlns="http://www.w3.org/2000/svg">
<g clip-path="url(#clip0_505_7312)">
<path d="M260.587 271.481H272.598V197.289H260.587V195.77H295.417V197.289H283.407V271.481H295.417V273H260.587V271.481Z" fill="white"/>
<path d="M257.517 170.163C257.38 168.329 256.93 167.672 255.62 167.398C253.982 167.001 252.276 166.673 249.396 166.276L249.464 163.717C253.395 163.854 255.879 163.908 258.308 163.908C260.41 163.908 260.792 163.443 260.792 161.418V132.978H254.569V147.69C254.569 151.632 254.705 155.505 254.76 159.187C254.76 160.501 254.296 160.637 249.519 161.418C248.209 161.678 247.813 161.349 247.813 159.912C247.881 155.779 247.881 152.166 247.881 148.019V132.978H242.19V149.073C242.19 153.411 242.327 157.284 242.381 161.678C242.381 163.128 242.19 163.388 237.018 164.045C235.707 164.237 235.243 163.854 235.312 162.266C235.448 158.393 235.571 153.863 235.571 149.593V132.978H229.347V169.095C229.347 170.669 228.883 170.875 223.779 171.395C222.21 171.586 221.746 171.203 221.746 169.561C221.937 159.187 222.073 147.102 222.073 136.523C222.073 134.155 222.073 131.596 221.746 128.845C224.366 129.173 227.123 129.967 229.279 131.007H239.761C240.484 127.586 240.935 123.712 241.071 120.168H227.45C224.694 120.168 221.882 120.305 218.416 120.893L217.174 117.54C221.432 118.005 223.656 118.197 226.741 118.197H262.894C263.617 116.623 266.033 113.338 267.411 113.338C268.913 113.338 273.048 117.02 273.048 118.922C273.048 119.908 272.857 120.168 271.806 120.168H249.86C248.482 123.918 245.998 128.311 243.964 131.007H260.069C261.052 129.625 262.621 128.243 264.191 128.243C265.76 128.243 270.223 131.062 270.223 132.581C270.223 134.1 269.104 134.62 268.067 135.072L268.326 164.305C268.326 166.741 267.739 167.918 266.101 169.232C264.6 170.478 262.43 171.395 260.014 171.928C258.445 172.189 257.653 171.86 257.53 170.149L257.517 170.163Z" fill="white"/>
<path d="M292.496 165.633H312.081C314.565 159.392 315.943 153.808 317.062 147.704C317.977 142.777 318.564 138.055 318.7 132.992C325.77 133.32 330.164 134.702 330.096 136.413C330.028 137.919 327.94 138.521 326.234 138.521C324.992 145.87 320.406 159.146 315.889 165.647H329.059C329.973 163.813 332.198 160.391 333.836 160.391C335.473 160.391 339.472 164.73 339.595 166.44C339.663 167.357 339.336 167.754 338.353 167.754H293.029C289.425 167.754 286.805 167.946 283.134 168.48L281.892 164.935C286.409 165.523 288.961 165.66 292.496 165.66V165.633ZM296.099 126.354H306.649V118.348C306.649 115.857 306.581 114.146 306.322 112.298C307.495 112.435 308.546 112.435 309.856 112.367C315.288 111.901 318.564 112.955 318.564 114.406C318.564 115.98 316.271 116.774 314.565 116.965V126.354H324.842C325.565 124.575 327.858 121.167 329.291 121.167C330.86 121.167 335.05 125.245 335.05 127.079C335.05 127.928 334.859 128.325 333.877 128.325H296.741C293.533 128.325 291.241 128.585 287.774 129.173L286.655 125.697C290.586 126.217 293.274 126.354 296.086 126.354H296.099ZM296.031 133.252C299.307 137.125 302.978 143.106 305.134 147.376C306.704 150.469 307.099 152.043 306.772 154.739C306.308 158.817 304.411 162.157 302.446 162.485C301.463 162.677 300.999 162.157 300.617 160.254C298.788 151.646 296.495 141.997 293.615 134.771L296.045 133.265L296.031 133.252Z" fill="white"/>
<path d="M358.061 161.527C358.197 160.145 357.665 159.159 356.423 158.899C353.939 158.434 352.751 156.792 353.011 154.629C353.202 152.59 355.167 151.085 357.01 151.016C358.838 150.948 360.422 151.742 361.664 153.247C362.783 154.629 363.165 156.86 362.783 159.419C362.196 162.896 359.767 167.234 354.922 170.259L353.475 168.753C357.405 165.66 357.924 163.101 358.061 161.527Z" fill="white"/>
<path d="M231.367 265.828V260.176H196.265V265.568C196.265 267.019 195.937 267.279 191.161 267.539C190.042 267.608 189.659 267.348 189.659 266.034C189.987 250.856 190.123 233.981 190.178 217.366C190.178 214.93 190.11 212.316 189.782 209.36C192.266 209.551 194.695 210.277 196.401 211.262H230.658C231.572 210.14 232.95 208.771 234.397 208.771C235.707 208.771 239.638 211.139 239.638 212.713C239.638 213.958 238.724 214.684 237.536 215.149L238.123 265.459C238.123 266.841 237.727 266.964 233.278 267.361C231.831 267.498 231.381 267.101 231.381 265.856L231.367 265.828ZM231.367 258.205V213.219H196.265V258.205H231.367ZM209.558 230.683H207.265C204.836 230.683 203.007 230.874 200.059 231.408L198.94 228.123C202.475 228.643 204.113 228.712 206.474 228.712H209.749C209.94 226.221 209.94 223.785 209.886 221.486C209.886 219.652 209.749 218.133 209.49 216.299C210.609 216.367 211.523 216.367 212.561 216.299C215.7 216.107 218.525 216.764 218.525 218.009C218.525 219.186 216.955 219.72 215.768 219.912C215.768 222.936 215.631 225.893 215.304 228.712H220.285C220.804 227.466 222.51 224.962 223.629 224.962C224.803 224.962 228.146 227.918 228.146 229.492C228.146 230.286 227.819 230.669 226.973 230.669H216.164C218.265 237.895 223.37 244.465 230.18 247.818L229.388 249.788C226.372 249.268 225.526 249.597 224.352 250.514C223.37 251.362 222.715 251.308 221.923 250.514C219.767 248.351 216.095 241.057 214.649 233.05C212.752 241.919 208.234 249.337 198.148 252.95L197.234 250.979C205.819 246.121 208.698 238.306 209.544 230.683H209.558Z" fill="white"/>
<path d="M356.505 265.719C356.368 264.077 355.986 263.557 354.676 263.228C353.107 262.831 351.264 262.503 348.384 262.174L348.521 259.807C352.315 259.998 354.813 260.067 357.556 260.067C359.453 260.067 359.849 259.67 359.849 257.767V228.671H352.52V244.109C352.52 247.913 352.656 251.732 352.711 255.345C352.711 256.522 352.315 256.659 348.193 257.316C347.074 257.576 346.692 257.247 346.692 256.002C346.76 251.992 346.76 248.379 346.76 244.382V228.685H340.086V245.505C340.086 249.706 340.155 253.511 340.223 257.658C340.223 258.903 340.032 259.163 335.569 259.766C334.45 259.902 334.068 259.574 334.068 258.192C334.204 254.442 334.327 250.117 334.327 245.915V228.712H327.053V264.898C327.053 266.28 326.589 266.472 322.208 266.937C320.829 267.074 320.433 266.8 320.433 265.295C320.625 254.784 320.761 242.576 320.761 232.065C320.761 229.697 320.761 227.33 320.502 224.702C322.726 224.962 325.156 225.687 326.985 226.673H338.449C339.24 223.251 339.827 219.446 340.018 215.902H325.811C322.999 215.902 320.311 215.97 316.899 216.559L315.657 213.206C319.915 213.726 322.071 213.863 325.019 213.863H361.568C362.292 212.357 364.516 209.401 365.826 209.401C367.273 209.401 371.204 212.877 371.204 214.725C371.204 215.573 370.944 215.902 370.03 215.902H347.429C346.187 219.706 343.962 223.977 342.052 226.673H359.207C360.053 225.427 361.432 224.237 362.81 224.237C364.189 224.237 368.119 226.727 368.119 228.178C368.119 229.492 367.137 230.012 366.154 230.409L366.413 260.423C366.413 262.653 365.826 263.639 364.311 264.884C362.933 266.061 361.036 266.923 358.811 267.375C357.31 267.635 356.655 267.238 356.518 265.733L356.505 265.719Z" fill="white"/>
<path d="M391.28 239.195C391.211 237.69 391.143 236.239 390.952 234.597C392.003 234.665 393.177 234.734 394.227 234.857C396.657 231.052 398.554 226.851 399.987 222.512H392.194C388.782 222.512 386.557 222.704 383.35 223.237L382.299 219.816C386.366 220.336 388.454 220.473 391.73 220.473H400.574C401.816 216.203 402.675 211.81 403.003 207.403C408.039 207.403 412.693 208.525 412.625 210.167C412.488 211.481 410.66 211.878 409.281 212.001C408.762 214.821 408.107 217.654 407.125 220.473H425.399C426.054 218.899 428.211 216.203 429.521 216.203C430.968 216.203 434.693 219.748 434.693 221.321C434.693 222.307 434.502 222.498 433.52 222.498H406.47C404.436 228.014 401.556 233.406 397.885 238.196V259.738C401.488 260.258 403.576 260.327 405.937 260.327H412.42V243.315H409.54C406.852 243.315 405.023 243.507 402.075 244.04L400.956 240.687C403.972 241.207 405.733 241.344 408.94 241.344H412.406V234.049C412.406 231.942 412.338 229.916 411.942 227.617C413.184 227.754 414.044 227.754 415.354 227.617C419.149 227.289 421.974 228.082 421.974 229.259C421.974 230.436 420.213 231.299 418.903 231.49V241.344H422.956C423.543 239.893 425.44 237.334 426.628 237.334C427.938 237.334 431.541 240.482 431.541 242.124C431.541 242.973 431.35 243.301 430.367 243.301H418.903V260.313H428.142C428.729 258.862 430.695 256.235 432.073 256.235C433.451 256.235 436.986 259.711 436.986 261.093C436.986 262.147 436.795 262.27 435.813 262.27H406.401C403.781 262.27 401.352 262.53 398.608 262.995L397.885 260.956V266.54C397.885 267.991 397.421 268.114 392.835 268.511C391.457 268.579 391.007 268.114 391.061 266.869C391.198 263.324 391.32 259.574 391.32 255.838V244.998C388.113 247.763 384.51 250.062 380.443 251.759L379.46 249.652C384.046 246.955 387.977 243.342 391.252 239.141L391.28 239.195Z" fill="white"/>
<g clip-path="url(#clip1_505_7312)">
<path d="M221.277 72.719V77.0985C221.277 78.3738 221.289 79.1679 221.337 79.4807C221.361 79.8176 221.518 80.0222 221.77 80.0583C221.807 80.0583 221.963 80.0823 222.252 80.1184C222.396 80.1184 222.48 80.1666 222.48 80.2387C222.48 80.3109 222.396 80.335 222.228 80.335C221.927 80.335 221.506 80.335 221.001 80.323C220.483 80.323 220.219 80.3109 220.219 80.3109C220.171 80.3109 219.93 80.3109 219.473 80.323C219.016 80.323 218.727 80.335 218.583 80.335C218.414 80.335 218.33 80.2989 218.33 80.2267C218.33 80.1545 218.402 80.1184 218.559 80.1184C218.727 80.1064 218.847 80.0944 218.92 80.0703C219.124 80.0342 219.244 79.8297 219.281 79.4567C219.329 78.9875 219.353 78.2054 219.353 77.0985V72.719C218.475 72.719 217.909 72.719 217.669 72.7431C217.356 72.7551 217.127 72.8152 216.983 72.8995C216.839 72.9837 216.73 73.1281 216.658 73.3206C216.622 73.4048 216.586 73.489 216.562 73.5732C216.538 73.6935 216.49 73.7537 216.43 73.7537C216.358 73.7537 216.322 73.6815 216.346 73.5251C216.37 73.3085 216.454 72.8152 216.586 72.0452C216.61 71.8647 216.646 71.7685 216.706 71.7685C216.73 71.7685 216.755 71.7685 216.779 71.7685C216.803 71.7685 216.839 71.7926 216.899 71.8046C216.959 71.8166 217.019 71.8287 217.091 71.8527C217.332 71.9008 217.741 71.9369 218.33 71.9369H223.19C223.454 71.9369 223.683 71.9249 223.899 71.8888C223.948 71.8888 223.996 71.8768 224.044 71.8647C224.092 71.8647 224.14 71.8407 224.164 71.8407C224.188 71.8407 224.224 71.8287 224.236 71.8287C224.284 71.8287 224.32 71.8527 224.333 71.9008C224.333 71.949 224.345 72.0452 224.345 72.1776C224.345 72.2377 224.333 72.4784 224.308 72.8995C224.284 73.3206 224.272 73.5732 224.272 73.6454C224.272 73.7898 224.224 73.874 224.164 73.874C224.104 73.874 224.056 73.8018 224.044 73.6695C224.032 73.5371 224.02 73.4649 224.02 73.4529C223.996 73.2604 223.924 73.104 223.791 72.9957C223.659 72.8874 223.442 72.8152 223.142 72.7912C222.733 72.7551 222.131 72.731 221.349 72.731" fill="#1A8EB7"/>
<path d="M231.61 75.3298H235.086C235.086 75.3298 235.158 75.3058 235.158 75.2576V75.017C235.158 73.7417 235.158 72.9837 235.134 72.743C235.122 72.5746 235.074 72.4423 235.014 72.346C234.954 72.2497 234.833 72.1896 234.653 72.1535C234.641 72.1535 234.509 72.1535 234.268 72.1174C234.124 72.1174 234.052 72.0813 234.052 72.0091C234.052 71.9369 234.124 71.9008 234.28 71.9008C234.461 71.9008 234.701 71.9008 234.978 71.9008C235.254 71.9008 235.495 71.9008 235.699 71.9129C235.904 71.9129 236.024 71.9249 236.036 71.9249L236.818 71.9008C237.347 71.9008 237.708 71.9008 237.901 71.9008C238.045 71.9008 238.129 71.9369 238.129 72.0091C238.129 72.0813 238.069 72.1174 237.961 72.1174C237.913 72.1174 237.865 72.1294 237.816 72.1294C237.768 72.1294 237.72 72.1294 237.684 72.1415C237.648 72.1415 237.612 72.1415 237.576 72.1535C237.335 72.1896 237.191 72.3821 237.167 72.743C237.155 72.9837 237.143 73.7778 237.143 75.1253V77.0864C237.143 78.3498 237.167 79.1318 237.203 79.4446C237.215 79.6371 237.263 79.7815 237.323 79.8778C237.395 79.974 237.504 80.0342 237.66 80.0583C237.72 80.0583 237.816 80.0703 237.949 80.0823C238.081 80.0823 238.153 80.0943 238.153 80.0943C238.286 80.0943 238.346 80.1304 238.346 80.2026C238.346 80.2748 238.274 80.3109 238.117 80.3109C237.816 80.3109 237.395 80.3109 236.854 80.2989C236.313 80.2989 236.036 80.2869 236.012 80.2869C235.988 80.2869 235.76 80.2869 235.351 80.2989C234.942 80.2989 234.629 80.3109 234.412 80.3109C234.244 80.3109 234.172 80.2748 234.172 80.1906C234.172 80.1184 234.244 80.0943 234.388 80.0943C234.569 80.0823 234.677 80.0703 234.737 80.0462C234.857 80.0222 234.954 79.95 235.002 79.8537C235.05 79.7575 235.086 79.6131 235.098 79.4206C235.146 78.9514 235.17 78.2054 235.17 77.1827V76.2803C235.17 76.2803 235.146 76.2202 235.098 76.2202H231.622C231.622 76.2202 231.55 76.2442 231.55 76.2803V77.4354C231.55 78.3618 231.574 79.0356 231.61 79.4326C231.646 79.7815 231.802 79.974 232.079 80.0222C232.247 80.0462 232.404 80.0583 232.548 80.0823C232.692 80.0823 232.764 80.1184 232.764 80.1906C232.764 80.2628 232.692 80.2989 232.536 80.2989C232.356 80.2989 232.091 80.2989 231.766 80.2989C231.441 80.2989 231.153 80.2989 230.888 80.2869C230.635 80.2869 230.491 80.2869 230.467 80.2869C230.455 80.2869 230.214 80.2869 229.745 80.2989C229.276 80.2989 228.975 80.3109 228.831 80.3109C228.663 80.3109 228.591 80.2748 228.591 80.2147C228.591 80.1304 228.651 80.0943 228.783 80.0943C228.867 80.0943 228.975 80.0703 229.132 80.0462C229.36 80.0222 229.493 79.7936 229.517 79.3845C229.553 78.8671 229.577 78.0971 229.577 77.0744V75.1373C229.577 73.9342 229.577 73.1521 229.541 72.7912C229.529 72.5866 229.481 72.4423 229.396 72.334C229.312 72.2257 229.18 72.1655 229 72.1294C228.951 72.1294 228.855 72.1174 228.687 72.0933C228.542 72.0933 228.458 72.0452 228.458 71.973C228.458 71.9129 228.542 71.8768 228.699 71.8768C228.951 71.8768 229.288 71.8768 229.721 71.8888C230.166 71.8888 230.407 71.9008 230.455 71.9008C230.587 71.9008 230.888 71.9008 231.357 71.8888C231.826 71.8888 232.139 71.8768 232.295 71.8768C232.452 71.8768 232.536 71.9129 232.536 71.9851C232.536 72.0572 232.464 72.0933 232.331 72.0933C232.139 72.1054 232.007 72.1174 231.947 72.1415C231.802 72.1655 231.706 72.2377 231.658 72.346C231.61 72.4543 231.574 72.5987 231.562 72.7912C231.538 73.0318 231.526 73.7657 231.526 75.005V75.2456C231.526 75.2456 231.55 75.3178 231.598 75.3178" fill="#1A8EB7"/>
<path d="M221.277 72.719V77.0985C221.277 78.3738 221.289 79.1679 221.337 79.4807C221.361 79.8176 221.518 80.0222 221.77 80.0583C221.807 80.0583 221.963 80.0823 222.252 80.1184C222.396 80.1184 222.48 80.1666 222.48 80.2387C222.48 80.3109 222.396 80.335 222.228 80.335C221.927 80.335 221.506 80.335 221.001 80.323C220.483 80.323 220.219 80.3109 220.219 80.3109C220.171 80.3109 219.93 80.3109 219.473 80.323C219.016 80.323 218.727 80.335 218.583 80.335C218.414 80.335 218.33 80.2989 218.33 80.2267C218.33 80.1545 218.402 80.1184 218.559 80.1184C218.727 80.1064 218.847 80.0944 218.92 80.0703C219.124 80.0342 219.244 79.8297 219.281 79.4567C219.329 78.9875 219.353 78.2054 219.353 77.0985V72.719C218.475 72.719 217.909 72.719 217.669 72.7431C217.356 72.7551 217.127 72.8152 216.983 72.8995C216.839 72.9837 216.73 73.1281 216.658 73.3206C216.622 73.4048 216.586 73.489 216.562 73.5732C216.538 73.6935 216.49 73.7537 216.43 73.7537C216.358 73.7537 216.322 73.6815 216.346 73.5251C216.37 73.3085 216.454 72.8152 216.586 72.0452C216.61 71.8647 216.646 71.7685 216.706 71.7685C216.73 71.7685 216.755 71.7685 216.779 71.7685C216.803 71.7685 216.839 71.7926 216.899 71.8046C216.959 71.8166 217.019 71.8287 217.091 71.8527C217.332 71.9008 217.741 71.9369 218.33 71.9369H223.19C223.454 71.9369 223.683 71.9249 223.899 71.8888C223.948 71.8888 223.996 71.8768 224.044 71.8647C224.092 71.8647 224.14 71.8407 224.164 71.8407C224.188 71.8407 224.224 71.8287 224.236 71.8287C224.284 71.8287 224.32 71.8527 224.333 71.9008C224.333 71.949 224.345 72.0452 224.345 72.1776C224.345 72.2377 224.333 72.4784 224.308 72.8995C224.284 73.3206 224.272 73.5732 224.272 73.6454C224.272 73.7898 224.224 73.874 224.164 73.874C224.104 73.874 224.056 73.8018 224.044 73.6695C224.032 73.5371 224.02 73.4649 224.02 73.4529C223.996 73.2604 223.924 73.104 223.791 72.9957C223.659 72.8874 223.442 72.8152 223.142 72.7912C222.733 72.7551 222.131 72.731 221.349 72.731" fill="white"/>
<path d="M231.61 75.3298H235.086C235.086 75.3298 235.158 75.3058 235.158 75.2576V75.017C235.158 73.7417 235.158 72.9837 235.134 72.743C235.122 72.5746 235.074 72.4423 235.014 72.346C234.954 72.2497 234.833 72.1896 234.653 72.1535C234.641 72.1535 234.509 72.1535 234.268 72.1174C234.124 72.1174 234.052 72.0813 234.052 72.0091C234.052 71.9369 234.124 71.9008 234.28 71.9008C234.461 71.9008 234.701 71.9008 234.978 71.9008C235.254 71.9008 235.495 71.9008 235.699 71.9129C235.904 71.9129 236.024 71.9249 236.036 71.9249L236.818 71.9008C237.347 71.9008 237.708 71.9008 237.901 71.9008C238.045 71.9008 238.129 71.9369 238.129 72.0091C238.129 72.0813 238.069 72.1174 237.961 72.1174C237.913 72.1174 237.865 72.1294 237.816 72.1294C237.768 72.1294 237.72 72.1294 237.684 72.1415C237.648 72.1415 237.612 72.1415 237.576 72.1535C237.335 72.1896 237.191 72.3821 237.167 72.743C237.155 72.9837 237.143 73.7778 237.143 75.1253V77.0864C237.143 78.3498 237.167 79.1318 237.203 79.4446C237.215 79.6371 237.263 79.7815 237.323 79.8778C237.395 79.974 237.504 80.0342 237.66 80.0583C237.72 80.0583 237.816 80.0703 237.949 80.0823C238.081 80.0823 238.153 80.0943 238.153 80.0943C238.286 80.0943 238.346 80.1304 238.346 80.2026C238.346 80.2748 238.274 80.3109 238.117 80.3109C237.816 80.3109 237.395 80.3109 236.854 80.2989C236.313 80.2989 236.036 80.2869 236.012 80.2869C235.988 80.2869 235.76 80.2869 235.351 80.2989C234.942 80.2989 234.629 80.3109 234.412 80.3109C234.244 80.3109 234.172 80.2748 234.172 80.1906C234.172 80.1184 234.244 80.0943 234.388 80.0943C234.569 80.0823 234.677 80.0703 234.737 80.0462C234.857 80.0222 234.954 79.95 235.002 79.8537C235.05 79.7575 235.086 79.6131 235.098 79.4206C235.146 78.9514 235.17 78.2054 235.17 77.1827V76.2803C235.17 76.2803 235.146 76.2202 235.098 76.2202H231.622C231.622 76.2202 231.55 76.2442 231.55 76.2803V77.4354C231.55 78.3618 231.574 79.0356 231.61 79.4326C231.646 79.7815 231.802 79.974 232.079 80.0222C232.247 80.0462 232.404 80.0583 232.548 80.0823C232.692 80.0823 232.764 80.1184 232.764 80.1906C232.764 80.2628 232.692 80.2989 232.536 80.2989C232.356 80.2989 232.091 80.2989 231.766 80.2989C231.441 80.2989 231.153 80.2989 230.888 80.2869C230.635 80.2869 230.491 80.2869 230.467 80.2869C230.455 80.2869 230.214 80.2869 229.745 80.2989C229.276 80.2989 228.975 80.3109 228.831 80.3109C228.663 80.3109 228.591 80.2748 228.591 80.2147C228.591 80.1304 228.651 80.0943 228.783 80.0943C228.867 80.0943 228.975 80.0703 229.132 80.0462C229.36 80.0222 229.493 79.7936 229.517 79.3845C229.553 78.8671 229.577 78.0971 229.577 77.0744V75.1373C229.577 73.9342 229.577 73.1521 229.541 72.7912C229.529 72.5866 229.481 72.4423 229.396 72.334C229.312 72.2257 229.18 72.1655 229 72.1294C228.951 72.1294 228.855 72.1174 228.687 72.0933C228.542 72.0933 228.458 72.0452 228.458 71.973C228.458 71.9129 228.542 71.8768 228.699 71.8768C228.951 71.8768 229.288 71.8768 229.721 71.8888C230.166 71.8888 230.407 71.9008 230.455 71.9008C230.587 71.9008 230.888 71.9008 231.357 71.8888C231.826 71.8888 232.139 71.8768 232.295 71.8768C232.452 71.8768 232.536 71.9129 232.536 71.9851C232.536 72.0572 232.464 72.0933 232.331 72.0933C232.139 72.1054 232.007 72.1174 231.947 72.1415C231.802 72.1655 231.706 72.2377 231.658 72.346C231.61 72.4543 231.574 72.5987 231.562 72.7912C231.538 73.0318 231.526 73.7657 231.526 75.005V75.2456C231.526 75.2456 231.55 75.3178 231.598 75.3178" fill="white"/>
<path d="M268.682 86.6636C257.868 85.2439 223.683 84.137 212.857 83.3309V83.5354C209.995 59.388 191.651 40.7751 169.446 40.7751C147.242 40.7751 128.67 59.6406 125.987 84.0046V83.9324C116.641 84.7025 63.9199 85.7011 54.5857 86.9283C63.9199 88.1676 116.641 89.1662 125.987 89.9242V88.7932C154.928 87.7344 183.905 87.6863 212.857 88.6488V89.9964C223.683 89.1902 257.868 88.0833 268.682 86.6636Z" fill="white"/>
<path d="M81.1688 17.7707C88.8551 19.6356 94.8573 23.3172 99.1755 28.8036C103.494 34.29 104.781 40.6066 103.037 47.7654C101.473 54.2264 98.6222 59.8211 94.5205 64.5495C90.4067 69.2779 85.6434 73.489 80.2185 77.1586C77.5001 78.9874 73.7111 81.7427 70.8242 83.3549H78.6669C85.1021 80.4793 91.0202 78.3979 96.409 75.6306C101.798 72.8754 106.573 69.9517 110.747 66.8957C114.909 63.8397 118.361 60.5069 121.092 56.9095C123.81 53.312 125.723 49.2453 126.829 44.6974C129.247 34.7352 127.407 25.7235 121.32 17.6744C115.222 9.62527 106.236 4.15089 94.3521 1.26331C88.7588 -0.0962609 83.5023 -0.348924 78.5706 0.481256C73.651 1.32347 69.056 2.88758 64.7979 5.18561C60.5398 7.48365 56.5704 10.275 52.9137 13.5476C49.245 16.8202 45.9492 20.3214 43.0022 24.0512L45.0471 25.9401C50.3276 20.935 55.8006 17.8549 61.442 16.7359C67.0834 15.605 73.663 15.9539 81.1808 17.7827" fill="white"/>
<path d="M210.897 103.303C212.28 99.2486 213.086 94.9413 213.218 90.4535C184.037 91.3078 154.832 91.2717 125.662 90.3212C125.71 92.1741 125.879 94.0029 126.156 95.7956C154.411 95.6031 182.666 96.1806 210.873 97.5402C182.882 98.8757 154.856 99.4652 126.829 99.2847C127.876 103.7 129.584 107.851 131.857 111.629C155.589 111.701 179.334 112.652 203.03 114.457C180.657 116.165 158.26 117.104 135.863 117.26C143.898 126.837 155.95 132.937 169.434 132.937C177.289 132.937 184.65 130.868 191.026 127.246C176.627 126.789 162.229 126.007 147.843 124.9C164.539 123.613 181.246 122.77 197.954 122.361C202.874 118.138 206.843 112.844 209.501 106.841C183.339 106.913 157.177 106.335 131.051 105.072C157.634 103.785 184.265 103.207 210.885 103.303" fill="white"/>
<path d="M105.671 113.614C102.519 108.681 98.598 104.266 93.9069 100.344C89.2158 96.4212 83.2737 93.1607 77.8007 90.5258H70.8121C70.8121 90.5258 94.4602 113.338 86.4612 155.532C84.693 164.881 80.6996 171.823 75.9122 176.672C71.1248 181.521 66.121 184.974 60.9006 187.031C55.6802 189.089 50.8808 190.184 46.4904 190.328C42.112 190.46 39.2131 190.364 37.8178 190.015C34.1491 189.125 31.2381 187.368 29.1091 184.745C26.968 182.122 25.1397 179.355 23.6361 176.431C22.1325 173.508 20.5688 170.801 18.945 168.31C17.3331 165.82 15.0357 164.207 12.0646 163.485C8.56432 162.631 5.93006 163.016 4.14984 164.616C2.36961 166.217 1.1427 168.418 0.4691 171.222C-0.204499 174.013 -0.180442 176.564 0.5533 178.874C1.28704 181.184 2.58613 183.253 4.45055 185.094C6.31498 186.935 8.5162 188.535 11.0542 189.895C13.5923 191.254 16.0822 192.229 18.536 192.818C28.8445 195.321 39.0086 196.127 49.0404 195.237C59.0722 194.346 68.3583 191.916 76.8985 187.982C85.4388 184.035 92.7883 178.561 98.9348 171.535C105.081 164.508 109.352 156.11 111.721 146.316C113.08 140.722 113.189 135.103 112.058 129.46C110.927 123.817 108.786 118.523 105.635 113.602" fill="white"/>
</g>
</g>
<defs>
<clipPath id="clip0_505_7312">
<rect width="437" height="273" fill="white"/>
</clipPath>
<clipPath id="clip1_505_7312">
<rect width="268.682" height="195.598" fill="white"/>
</clipPath>
</defs>
</svg>
