<?xml version="1.0" encoding="utf-8"?>
<!-- Generator: Adobe Illustrator 27.9.0, SVG Export Plug-In . SVG Version: 6.00 Build 0)  -->
<svg version="1.1" id="圖層_1" xmlns="http://www.w3.org/2000/svg" xmlns:xlink="http://www.w3.org/1999/xlink" x="0px" y="0px"
	 viewBox="0 0 435.2 261.9" style="enable-background:new 0 0 435.2 261.9;" xml:space="preserve">
<style type="text/css">
	.st0{fill:#FFFFFF;}
	.st1{fill:#D32F2F;}
</style>
<g>
	<g>
		<path class="st0" d="M287.2,169.7c-0.1-1.5-0.5-2.1-1.6-2.3c-1.4-0.3-2.8-0.6-5.1-0.9l0.1-2.1c3.2,0.1,5.3,0.2,7.3,0.2
			c1.7,0,2.1-0.4,2.1-2.1v-23.4h-5.1v12.1c0,3.2,0.1,6.4,0.2,9.4c0,1.1-0.4,1.2-4.3,1.8c-1.1,0.2-1.4-0.1-1.4-1.2
			c0.1-3.4,0.1-6.4,0.1-9.8v-12.4h-4.7v13.2c0,3.6,0.1,6.7,0.2,10.4c0,1.2-0.2,1.4-4.4,1.9c-1.1,0.2-1.5-0.2-1.4-1.5
			c0.1-3.2,0.2-6.9,0.2-10.4v-13.7H264v29.7c0,1.3-0.4,1.5-4.6,1.9c-1.3,0.2-1.7-0.2-1.7-1.5c0.2-8.5,0.3-18.5,0.3-27.2
			c0-1.9,0-4-0.3-6.3c2.2,0.3,4.4,0.9,6.2,1.8h8.6c0.6-2.8,1-6,1.1-8.9h-11.2c-2.3,0-4.6,0.1-7.5,0.6l-1-2.8
			c3.5,0.4,5.3,0.5,7.9,0.5h29.8c0.6-1.3,2.6-4,3.7-4c1.2,0,4.6,3,4.6,4.6c0,0.8-0.2,1-1,1h-18.1c-1.1,3.1-3.2,6.7-4.9,8.9h13.3
			c0.8-1.1,2.1-2.3,3.4-2.3c1.3,0,5,2.3,5,3.6c0,1.2-0.9,1.7-1.8,2.1l0.2,24c0,2-0.5,3-1.8,4c-1.2,1-3,1.8-5,2.2
			C288,171.4,287.3,171.1,287.2,169.7z"/>
		<path class="st0" d="M316.1,166h16.1c2.1-5.1,3.2-9.7,4.1-14.7c0.8-4,1.2-7.9,1.4-12.1c5.8,0.3,9.4,1.4,9.4,2.8
			c-0.1,1.2-1.8,1.7-3.2,1.7c-1,6-4.8,17-8.5,22.3h10.9c0.8-1.5,2.6-4.3,3.9-4.3c1.4,0,4.6,3.6,4.8,5c0.1,0.8-0.2,1.1-1,1.1h-37.4
			c-3,0-5.1,0.2-8.2,0.6l-1-2.9C311,165.9,313.2,166,316.1,166z M319,133.7h8.7v-6.6c0-2.1-0.1-3.5-0.3-5c1,0.1,1.8,0.1,2.9,0.1
			c4.5-0.4,7.2,0.5,7.2,1.7c0,1.3-1.9,1.9-3.3,2.1v7.7h8.5c0.6-1.5,2.5-4.3,3.7-4.3c1.3,0,4.8,3.3,4.8,4.9c0,0.7-0.2,1-1,1h-30.6
			c-2.6,0-4.5,0.2-7.4,0.7l-0.9-2.9C314.5,133.6,316.7,133.7,319,133.7z M319,139.4c2.7,3.2,5.7,8.1,7.5,11.6c1.3,2.5,1.6,3.8,1.4,6
			c-0.4,3.3-1.9,6.1-3.6,6.4c-0.8,0.2-1.2-0.3-1.5-1.8c-1.5-7.1-3.4-15-5.8-20.9L319,139.4z"/>
	</g>
	<g>
		<path class="st0" d="M370.1,162.6c0.1-1.1-0.3-1.9-1.4-2.2c-2.1-0.4-3-1.7-2.8-3.5c0.2-1.7,1.8-2.9,3.3-3c1.5-0.1,2.8,0.6,3.8,1.8
			c0.9,1.1,1.2,3,0.9,5.1c-0.5,2.9-2.5,6.4-6.5,8.9l-1.2-1.2C369.6,166,370,163.9,370.1,162.6z"/>
	</g>
	<g>
		<path class="st0" d="M265.7,259.6V255h-28.9v4.4c0,1.2-0.3,1.4-4.2,1.6c-0.9,0.1-1.2-0.2-1.2-1.2c0.3-12.5,0.4-26.3,0.4-40
			c0-2-0.1-4.2-0.3-6.6c2.1,0.2,4,0.8,5.5,1.6h28.2c0.8-0.9,1.9-2.1,3.1-2.1c1.1,0,4.3,1.9,4.3,3.2c0,1-0.8,1.6-1.7,2l0.5,41.4
			c0,1.1-0.3,1.2-4,1.6C266.1,261,265.7,260.7,265.7,259.6z M265.7,253.4v-37h-28.9v37H265.7z M247.7,230.7h-1.9
			c-2,0-3.5,0.2-5.9,0.6l-0.9-2.7c2.9,0.4,4.3,0.5,6.2,0.5h2.7c0.2-2.1,0.2-4,0.1-5.9c0-1.5-0.1-2.8-0.3-4.3c0.9,0.1,1.7,0.1,2.5,0
			c2.6-0.2,4.9,0.4,4.9,1.4c0,1-1.3,1.4-2.3,1.6c0,2.5-0.1,4.9-0.4,7.2h4.1c0.4-1,1.8-3.1,2.8-3.1c1,0,3.7,2.4,3.7,3.7
			c0,0.6-0.3,1-1,1h-8.9c1.7,5.9,5.9,11.3,11.6,14.1l-0.6,1.6c-2.5-0.4-3.2-0.2-4.2,0.6c-0.8,0.7-1.4,0.6-2,0
			c-1.8-1.8-4.8-7.8-6-14.4c-1.6,7.3-5.3,13.4-13.6,16.4l-0.8-1.6C244.6,243.4,247,237,247.7,230.7z"/>
	</g>
	<g>
		<path class="st0" d="M368.8,259.5c-0.1-1.3-0.4-1.8-1.5-2.1c-1.3-0.3-2.8-0.6-5.2-0.9l0.1-1.9c3.1,0.2,5.2,0.2,7.5,0.2
			c1.6,0,1.9-0.3,1.9-1.9v-23.9h-6v12.7c0,3.1,0.1,6.3,0.2,9.2c0,1-0.3,1.1-3.7,1.6c-0.9,0.2-1.2-0.1-1.2-1.1
			c0.1-3.3,0.1-6.3,0.1-9.6v-12.9h-5.5v13.8c0,3.5,0.1,6.6,0.1,10c0,1-0.2,1.2-3.8,1.7c-0.9,0.1-1.2-0.2-1.2-1.3
			c0.1-3.1,0.2-6.6,0.2-10.1v-14.1h-6v29.7c0,1.1-0.4,1.3-4,1.7c-1.1,0.1-1.5-0.1-1.5-1.4c0.2-8.6,0.3-18.7,0.3-27.3
			c0-1.9,0-3.9-0.2-6c1.8,0.2,3.8,0.8,5.3,1.6h9.4c0.6-2.8,1.1-5.9,1.3-8.9h-11.7c-2.3,0-4.5,0.1-7.3,0.5l-1-2.8
			c3.5,0.4,5.3,0.5,7.7,0.5H373c0.6-1.2,2.4-3.7,3.5-3.7c1.2,0,4.4,2.9,4.4,4.4c0,0.7-0.2,1-1,1h-18.6c-1,3.1-2.9,6.6-4.4,8.9h14.1
			c0.7-1,1.8-2,3-2c1.1,0,4.4,2.1,4.4,3.2c0,1.1-0.8,1.5-1.6,1.8l0.2,24.7c0,1.8-0.5,2.6-1.7,3.7c-1.1,1-2.7,1.7-4.5,2.1
			C369.5,261.1,369,260.8,368.8,259.5z"/>
		<path class="st0" d="M397.5,237.7c-0.1-1.2-0.1-2.4-0.3-3.8c0.9,0.1,1.8,0.1,2.7,0.2c2-3.1,3.6-6.6,4.8-10.2h-6.4
			c-2.8,0-4.6,0.2-7.3,0.6l-0.9-2.8c3.3,0.4,5.1,0.5,7.8,0.5h7.3c1-3.5,1.7-7.1,2-10.7c4.2,0,8,0.9,7.9,2.3
			c-0.1,1.1-1.6,1.4-2.8,1.5c-0.4,2.3-1,4.6-1.8,7h15.1c0.5-1.3,2.3-3.5,3.4-3.5c1.2,0,4.3,2.9,4.3,4.2c0,0.8-0.2,1-1,1H410
			c-1.7,4.5-4,9-7.1,12.9v13.9v3.8c3,0.4,4.7,0.5,6.6,0.5h5.3v-14h-2.4c-2.2,0-3.7,0.2-6.2,0.6l-0.9-2.8c2.5,0.4,3.9,0.5,6.6,0.5
			h2.9v-6c0-1.7-0.1-3.4-0.4-5.3c1,0.1,1.7,0.1,2.8,0c3.1-0.3,5.5,0.4,5.5,1.3c0,1-1.5,1.7-2.5,1.8v8.1h3.3c0.5-1.2,2.1-3.3,3-3.3
			c1.1,0,4,2.6,4,3.9c0,0.7-0.2,1-1,1h-9.4v14h7.6c0.5-1.2,2.1-3.3,3.2-3.3c1.1,0,4,2.9,4,4c0,0.9-0.2,1-1,1H410
			c-2.2,0-4.2,0.2-6.4,0.6l-0.6-1.7v4.6c0,1.2-0.4,1.3-4.2,1.6c-1.1,0.1-1.5-0.3-1.5-1.3c0.1-2.9,0.2-6,0.2-9.1v-8.9
			c-2.6,2.3-5.6,4.2-9,5.6l-0.8-1.7C391.6,244.1,394.8,241.2,397.5,237.7z"/>
	</g>
	<g>
		<path class="st0" d="M242.9,79.9v4.8c0,1.4,0,2.3,0.1,2.6c0,0.4,0.2,0.6,0.5,0.6c0,0,0.2,0,0.5,0.1c0.2,0,0.2,0.1,0.2,0.1
			c0,0.1-0.1,0.1-0.3,0.1c-0.3,0-0.8,0-1.4,0c-0.6,0-0.9,0-0.9,0c-0.1,0-0.3,0-0.8,0c-0.5,0-0.8,0-1,0c-0.2,0-0.3,0-0.3-0.1
			c0-0.1,0.1-0.1,0.2-0.1c0.2,0,0.3,0,0.4-0.1c0.2,0,0.3-0.3,0.4-0.7c0.1-0.5,0.1-1.4,0.1-2.6v-4.8c-1,0-1.6,0-1.9,0
			c-0.3,0-0.6,0.1-0.7,0.2c-0.2,0.1-0.3,0.2-0.4,0.5c0,0.1-0.1,0.2-0.1,0.3c0,0.1-0.1,0.2-0.2,0.2c-0.1,0-0.1-0.1-0.1-0.3
			c0-0.2,0.1-0.8,0.3-1.6c0-0.2,0.1-0.3,0.1-0.3c0,0,0.1,0,0.1,0c0,0,0.1,0,0.1,0c0.1,0,0.1,0,0.2,0.1c0.3,0.1,0.7,0.1,1.4,0.1h5.3
			c0.3,0,0.6,0,0.8-0.1c0.1,0,0.1,0,0.2,0c0.1,0,0.1,0,0.1,0c0,0,0.1,0,0.1,0c0.1,0,0.1,0,0.1,0.1c0,0.1,0,0.2,0,0.3
			c0,0.1,0,0.3,0,0.8c0,0.5-0.1,0.7-0.1,0.8c0,0.2,0,0.3-0.1,0.3c-0.1,0-0.1-0.1-0.1-0.2c0-0.2,0-0.2,0-0.2c0-0.2-0.1-0.4-0.3-0.5
			c-0.1-0.1-0.4-0.2-0.7-0.2C244.5,80,243.8,79.9,242.9,79.9"/>
		<path class="st0" d="M254.3,82.8h3.8c0.1,0,0.1,0,0.1-0.1v-0.3c0-1.4,0-2.2,0-2.5c0-0.2-0.1-0.3-0.1-0.4c-0.1-0.1-0.2-0.2-0.4-0.2
			c0,0-0.2,0-0.4,0c-0.2,0-0.2,0-0.2-0.1c0-0.1,0.1-0.1,0.2-0.1c0.2,0,0.5,0,0.8,0c0.3,0,0.6,0,0.8,0c0.2,0,0.3,0,0.4,0l0.9,0
			c0.6,0,1,0,1.2,0c0.2,0,0.2,0,0.2,0.1c0,0.1-0.1,0.1-0.2,0.1c-0.1,0-0.1,0-0.2,0c-0.1,0-0.1,0-0.2,0c0,0-0.1,0-0.1,0
			c-0.3,0-0.4,0.3-0.5,0.7c0,0.3,0,1.1,0,2.6v2.2c0,1.4,0,2.2,0.1,2.6c0,0.2,0.1,0.4,0.1,0.5c0.1,0.1,0.2,0.2,0.4,0.2
			c0.1,0,0.2,0,0.3,0c0.2,0,0.2,0,0.2,0c0.1,0,0.2,0,0.2,0.1c0,0.1-0.1,0.1-0.2,0.1c-0.3,0-0.8,0-1.4,0c-0.6,0-0.9,0-0.9,0
			c0,0-0.3,0-0.7,0c-0.5,0-0.8,0-1,0c-0.2,0-0.3-0.1-0.3-0.1c0-0.1,0.1-0.1,0.2-0.1c0.2,0,0.3,0,0.4-0.1c0.1,0,0.2-0.1,0.3-0.2
			c0.1-0.1,0.1-0.3,0.1-0.5c0.1-0.5,0.1-1.3,0.1-2.4v-1c0,0,0-0.1-0.1-0.1h-3.8c0,0-0.1,0-0.1,0.1v1.3c0,1,0,1.8,0.1,2.2
			c0,0.4,0.2,0.6,0.5,0.6c0.2,0,0.4,0.1,0.5,0.1c0.2,0,0.2,0,0.2,0.1c0,0.1-0.1,0.1-0.3,0.1c-0.2,0-0.5,0-0.8,0c-0.4,0-0.7,0-1,0
			c-0.3,0-0.4,0-0.5,0c0,0-0.3,0-0.8,0c-0.5,0-0.8,0-1,0c-0.2,0-0.3,0-0.3-0.1c0-0.1,0.1-0.1,0.2-0.1c0.1,0,0.2,0,0.4-0.1
			c0.2,0,0.4-0.3,0.4-0.7c0-0.6,0.1-1.4,0.1-2.5v-2.1c0-1.3,0-2.2,0-2.6c0-0.2-0.1-0.4-0.2-0.5c-0.1-0.1-0.2-0.2-0.4-0.2
			c0,0-0.2,0-0.3,0c-0.2,0-0.2-0.1-0.2-0.1c0-0.1,0.1-0.1,0.3-0.1c0.3,0,0.6,0,1.1,0c0.5,0,0.7,0,0.8,0c0.1,0,0.5,0,1,0
			c0.5,0,0.9,0,1,0c0.2,0,0.3,0,0.3,0.1c0,0.1-0.1,0.1-0.2,0.1c-0.2,0-0.4,0-0.4,0c-0.2,0-0.3,0.1-0.3,0.2c-0.1,0.1-0.1,0.3-0.1,0.5
			c0,0.3,0,1.1,0,2.4L254.3,82.8C254.2,82.8,254.2,82.8,254.3,82.8"/>
		<path class="st0" d="M242.9,79.9v4.8c0,1.4,0,2.3,0.1,2.6c0,0.4,0.2,0.6,0.5,0.6c0,0,0.2,0,0.5,0.1c0.2,0,0.2,0.1,0.2,0.1
			c0,0.1-0.1,0.1-0.3,0.1c-0.3,0-0.8,0-1.4,0c-0.6,0-0.9,0-0.9,0c-0.1,0-0.3,0-0.8,0c-0.5,0-0.8,0-1,0c-0.2,0-0.3,0-0.3-0.1
			c0-0.1,0.1-0.1,0.2-0.1c0.2,0,0.3,0,0.4-0.1c0.2,0,0.3-0.3,0.4-0.7c0.1-0.5,0.1-1.4,0.1-2.6v-4.8c-1,0-1.6,0-1.9,0
			c-0.3,0-0.6,0.1-0.7,0.2c-0.2,0.1-0.3,0.2-0.4,0.5c0,0.1-0.1,0.2-0.1,0.3c0,0.1-0.1,0.2-0.2,0.2c-0.1,0-0.1-0.1-0.1-0.3
			c0-0.2,0.1-0.8,0.3-1.6c0-0.2,0.1-0.3,0.1-0.3c0,0,0.1,0,0.1,0c0,0,0.1,0,0.1,0c0.1,0,0.1,0,0.2,0.1c0.3,0.1,0.7,0.1,1.4,0.1h5.3
			c0.3,0,0.6,0,0.8-0.1c0.1,0,0.1,0,0.2,0c0.1,0,0.1,0,0.1,0c0,0,0.1,0,0.1,0c0.1,0,0.1,0,0.1,0.1c0,0.1,0,0.2,0,0.3
			c0,0.1,0,0.3,0,0.8c0,0.5-0.1,0.7-0.1,0.8c0,0.2,0,0.3-0.1,0.3c-0.1,0-0.1-0.1-0.1-0.2c0-0.2,0-0.2,0-0.2c0-0.2-0.1-0.4-0.3-0.5
			c-0.1-0.1-0.4-0.2-0.7-0.2C244.5,80,243.8,79.9,242.9,79.9"/>
		<path class="st0" d="M254.3,82.8h3.8c0.1,0,0.1,0,0.1-0.1v-0.3c0-1.4,0-2.2,0-2.5c0-0.2-0.1-0.3-0.1-0.4c-0.1-0.1-0.2-0.2-0.4-0.2
			c0,0-0.2,0-0.4,0c-0.2,0-0.2,0-0.2-0.1c0-0.1,0.1-0.1,0.2-0.1c0.2,0,0.5,0,0.8,0c0.3,0,0.6,0,0.8,0c0.2,0,0.3,0,0.4,0l0.9,0
			c0.6,0,1,0,1.2,0c0.2,0,0.2,0,0.2,0.1c0,0.1-0.1,0.1-0.2,0.1c-0.1,0-0.1,0-0.2,0c-0.1,0-0.1,0-0.2,0c0,0-0.1,0-0.1,0
			c-0.3,0-0.4,0.3-0.5,0.7c0,0.3,0,1.1,0,2.6v2.2c0,1.4,0,2.2,0.1,2.6c0,0.2,0.1,0.4,0.1,0.5c0.1,0.1,0.2,0.2,0.4,0.2
			c0.1,0,0.2,0,0.3,0c0.2,0,0.2,0,0.2,0c0.1,0,0.2,0,0.2,0.1c0,0.1-0.1,0.1-0.2,0.1c-0.3,0-0.8,0-1.4,0c-0.6,0-0.9,0-0.9,0
			c0,0-0.3,0-0.7,0c-0.5,0-0.8,0-1,0c-0.2,0-0.3-0.1-0.3-0.1c0-0.1,0.1-0.1,0.2-0.1c0.2,0,0.3,0,0.4-0.1c0.1,0,0.2-0.1,0.3-0.2
			c0.1-0.1,0.1-0.3,0.1-0.5c0.1-0.5,0.1-1.3,0.1-2.4v-1c0,0,0-0.1-0.1-0.1h-3.8c0,0-0.1,0-0.1,0.1v1.3c0,1,0,1.8,0.1,2.2
			c0,0.4,0.2,0.6,0.5,0.6c0.2,0,0.4,0.1,0.5,0.1c0.2,0,0.2,0,0.2,0.1c0,0.1-0.1,0.1-0.3,0.1c-0.2,0-0.5,0-0.8,0c-0.4,0-0.7,0-1,0
			c-0.3,0-0.4,0-0.5,0c0,0-0.3,0-0.8,0c-0.5,0-0.8,0-1,0c-0.2,0-0.3,0-0.3-0.1c0-0.1,0.1-0.1,0.2-0.1c0.1,0,0.2,0,0.4-0.1
			c0.2,0,0.4-0.3,0.4-0.7c0-0.6,0.1-1.4,0.1-2.5v-2.1c0-1.3,0-2.2,0-2.6c0-0.2-0.1-0.4-0.2-0.5c-0.1-0.1-0.2-0.2-0.4-0.2
			c0,0-0.2,0-0.3,0c-0.2,0-0.2-0.1-0.2-0.1c0-0.1,0.1-0.1,0.3-0.1c0.3,0,0.6,0,1.1,0c0.5,0,0.7,0,0.8,0c0.1,0,0.5,0,1,0
			c0.5,0,0.9,0,1,0c0.2,0,0.3,0,0.3,0.1c0,0.1-0.1,0.1-0.2,0.1c-0.2,0-0.4,0-0.4,0c-0.2,0-0.3,0.1-0.3,0.2c-0.1,0.1-0.1,0.3-0.1,0.5
			c0,0.3,0,1.1,0,2.4L254.3,82.8C254.2,82.8,254.2,82.8,254.3,82.8"/>
		<path class="st0" d="M295,95.3c-11.9-1.6-49.4-2.8-61.3-3.7v0.2c-3.1-26.5-23.3-47-47.7-47c-24.5,0-44.8,20.7-47.7,47.5v-0.1
			c-10.3,0.8-68.1,1.9-78.4,3.3c10.2,1.4,68.1,2.5,78.4,3.3v-1.3c31.8-1.2,63.6-1.2,95.4-0.2v1.5C245.6,98,283.1,96.8,295,95.3"/>
		<path class="st0" d="M89.1,19.5c8.4,2.1,15,6.1,19.8,12.1c4.7,6,6.1,13,4.2,20.8c-1.7,7.1-4.8,13.2-9.4,18.4
			c-4.5,5.2-9.7,9.8-15.7,13.9c-3,2-7.1,5-10.3,6.8h8.6c7.1-3.2,13.6-5.4,19.5-8.5c5.9-3,11.2-6.2,15.7-9.6c4.6-3.4,8.4-7,11.3-11
			c3-4,5.1-8.4,6.3-13.4c2.7-11,0.6-20.9-6.1-29.7c-6.7-8.8-16.6-14.9-29.6-18c-6.1-1.5-11.9-1.8-17.3-0.9
			c-5.4,0.9-10.4,2.6-15.1,5.2c-4.7,2.5-9,5.6-13,9.2c-4,3.6-7.7,7.5-10.9,11.5l2.2,2.1c5.8-5.5,11.8-8.9,18-10.1
			C73.6,17.1,80.9,17.5,89.1,19.5"/>
		<path class="st0" d="M231.5,113.6c1.5-4.5,2.4-9.2,2.6-14.1c-32,0.9-64.1,0.9-96.1-0.1c0.1,2,0.2,4.1,0.5,6c31-0.2,62,0.4,93,1.9
			c-30.7,1.5-61.5,2.1-92.3,1.9c1.2,4.8,3,9.4,5.5,13.6c26.1,0.1,52.1,1.1,78.1,3.1c-24.6,1.9-49.1,2.9-73.7,3.1
			c8.8,10.5,22.1,17.2,36.9,17.2c8.6,0,16.7-2.3,23.7-6.3c-15.8-0.5-31.6-1.4-47.4-2.6c18.3-1.4,36.7-2.3,55-2.8
			c5.4-4.6,9.8-10.5,12.7-17.1c-28.7,0.1-57.4-0.6-86.1-1.9C173.1,114.1,202.3,113.4,231.5,113.6"/>
		<path class="st0" d="M116,124.9c-3.5-5.4-7.8-10.3-12.9-14.6c-5.2-4.3-11.7-7.9-17.7-10.8h-7.7c0,0,26,25.1,17.2,71.5
			c-1.9,10.3-6.3,17.9-11.6,23.2c-5.3,5.3-10.7,9.1-16.5,11.4c-5.7,2.3-11,3.5-15.8,3.6c-4.8,0.1-8,0-9.5-0.3c-4-1-7.2-2.9-9.6-5.8
			c-2.4-2.9-4.4-5.9-6-9.1c-1.7-3.2-3.4-6.2-5.1-8.9c-1.8-2.7-4.3-4.5-7.6-5.3c-3.8-0.9-6.7-0.5-8.7,1.2c-2,1.8-3.3,4.2-4,7.3
			c-0.7,3.1-0.7,5.9,0.1,8.4c0.8,2.5,2.2,4.8,4.3,6.8c2,2,4.5,3.8,7.3,5.3c2.8,1.5,5.5,2.6,8.2,3.2c11.3,2.8,22.5,3.6,33.5,2.7
			c11-1,21.2-3.6,30.6-8c9.4-4.3,17.4-10.4,24.2-18.1c6.7-7.7,11.4-17,14-27.7c1.5-6.1,1.6-12.3,0.4-18.5
			C121.8,136.1,119.5,130.3,116,124.9"/>
	</g>
	<g>
		<g>
			<path class="st0" d="M315,259c0,0.4-0.4,0.7-1.3,0.7c0,0-0.5-0.1-1.8-0.1c-1.5-0.1-2.7-0.1-3.7-0.1h-7.7
				c-0.2,0.2-0.5,0.3-0.9,0.3c-0.5,0-0.8-0.2-0.8-0.6c0-0.5,0.5-0.8,1.5-0.8c1.9,0,2.9-0.2,3.1-0.4c0.2-0.2,0.3-1.3,0.3-3.1v-22.6
				c-0.1-1.2-0.1-2-0.2-2.2c-0.1-0.2-0.4-0.3-0.9-0.3h-2.2c-0.2,0-0.4,0-0.7,0c-0.5,0-0.8-0.2-0.8-0.5c0-0.3,0.4-0.5,1.2-0.5
				c3.3-0.1,6.1-0.9,8.5-2.3l0.7-0.4c0.4,0.7,0.6,2.1,0.6,4.1c0-0.1,0,0.1,0,0.7c0,0.6,0,1.6,0,2.9v20.3c0,2,0,3.1,0.1,3.5
				c0.1,0.3,0.3,0.6,0.8,0.7c0.7,0.2,1.8,0.3,3.3,0.3C314.7,258.4,315,258.6,315,259z"/>
		</g>
		<g>
			<path class="st1" d="M312.8,214.5c-0.3,1.9-1.8,3.4-3.2,4.7c-1.4,1.3-3,2.6-3.9,4.2c-0.9-1.6-2.5-2.9-3.9-4.2
				c-1.5-1.3-2.9-2.9-3.2-4.7c-0.2-1.2,0.1-2.6,1-3.5c0.9-0.9,2.4-1.4,3.6-1c1.2,0.4,2.5,1.8,2.5,1.8s1.3-1.5,2.5-1.8
				c1.3-0.4,2.8,0.1,3.6,1C312.7,212,313,213.3,312.8,214.5z"/>
		</g>
	</g>
</g>
</svg>
